<svg xmlns="http://www.w3.org/2000/svg" width="233" height="221" viewBox="0 0 233 221">
<g>
<path d="M 98.50 212.53 C67.30,206.77 39.27,185.50 25.28,156.98 C17.31,140.74 14.55,128.47 14.69,110.00 C14.78,98.95 15.27,94.69 17.40,86.50 C27.20,48.74 54.87,21.38 93.99,10.76 C104.38,7.94 129.12,7.69 139.90,10.30 C189.80,22.38 223.06,65.93 220.65,116.00 C219.34,143.07 210.01,163.97 190.50,183.49 C174.76,199.24 159.09,207.87 138.52,212.11 C127.90,214.30 109.18,214.50 98.50,212.53 ZM 110.00 201.00 C110.00,197.52 109.71,197.00 107.75,197.00 C103.41,196.99 86.43,191.89 79.83,188.61 L 73.16 185.29 L 70.96 188.26 C68.38,191.75 68.24,191.60 78.50,196.37 C86.15,199.93 95.70,202.85 103.50,204.01 C106.25,204.42 108.84,204.81 109.25,204.88 C109.66,204.94 110.00,203.20 110.00,201.00 ZM 141.50 201.75 C149.87,199.60 166.02,192.72 165.98,191.31 C165.97,190.87 165.11,189.40 164.08,188.06 L 162.20 185.61 L 155.35 188.70 C147.07,192.44 142.82,193.82 133.00,195.98 C126.57,197.39 125.45,197.94 125.17,199.88 C124.36,205.49 126.16,205.69 141.50,201.75 ZM 110.00 173.62 L 110.00 154.23 L 105.06 152.62 C102.35,151.73 99.69,151.00 99.16,151.00 C98.39,151.00 79.60,175.82 76.65,180.72 C75.38,182.84 88.94,188.89 101.00,191.57 C110.90,193.77 110.00,195.56 110.00,173.62 ZM 139.00 190.34 C146.77,188.19 159.00,183.00 159.00,181.84 C159.00,181.31 153.99,174.01 147.87,165.63 L 136.74 150.39 L 130.87 152.44 L 125.00 154.50 L 125.00 173.84 L 125.00 193.18 L 129.25 192.52 C131.59,192.16 135.98,191.18 139.00,190.34 ZM 58.74 179.13 L 60.87 176.26 L 57.33 172.88 C52.11,167.88 45.64,159.23 41.53,151.75 L 37.89 145.14 L 34.70 146.22 C32.94,146.81 31.36,147.41 31.18,147.55 C30.61,148.00 36.19,158.37 40.13,164.19 C44.14,170.09 54.69,182.00 55.92,182.00 C56.31,182.00 57.58,180.71 58.74,179.13 ZM 186.03 175.31 C192.68,168.20 199.72,158.00 202.38,151.63 C203.27,149.50 204.00,147.63 204.00,147.48 C204.00,147.09 197.72,144.93 197.51,145.25 C197.41,145.39 195.69,148.49 193.67,152.15 C189.63,159.50 184.22,166.64 178.66,172.00 C176.66,173.93 175.02,175.87 175.01,176.31 C175.00,177.38 178.32,181.93 179.14,181.97 C179.48,181.99 182.59,178.99 186.03,175.31 ZM 75.16 156.56 C81.10,148.40 85.66,141.23 85.30,140.62 C84.94,140.00 83.50,137.93 82.11,136.00 C80.72,134.07 79.47,132.34 79.34,132.13 C79.02,131.64 43.71,142.98 42.76,143.88 C40.63,145.90 60.41,172.70 63.32,171.73 C63.90,171.53 69.22,164.71 75.16,156.56 ZM 177.19 167.75 C185.33,159.01 194.13,144.36 191.78,143.48 C187.67,141.94 157.45,132.00 156.88,132.00 C156.50,132.00 154.63,134.16 152.73,136.81 L 149.28 141.62 L 160.35 156.81 C166.44,165.16 171.83,172.00 172.33,172.00 C172.83,172.00 175.01,170.09 177.19,167.75 ZM 125.20 147.88 C136.63,145.45 146.56,137.67 151.76,127.07 C154.19,122.13 154.50,120.37 154.50,111.50 C154.50,102.76 154.16,100.78 151.84,95.82 C148.27,88.21 142.32,81.99 134.75,77.94 C129.28,75.01 127.38,74.54 119.50,74.20 C112.06,73.88 109.50,74.19 104.75,75.98 C79.67,85.43 72.05,116.91 90.10,136.50 C99.44,146.63 111.95,150.69 125.20,147.88 ZM 32.28 124.57 C31.40,117.72 31.29,106.37 32.01,97.60 C32.49,91.86 32.43,91.68 29.69,90.75 C28.14,90.22 26.68,89.99 26.43,90.23 C24.10,92.57 23.40,123.58 25.53,130.63 C26.11,132.56 26.50,132.66 29.61,131.70 L 33.06 130.65 L 32.28 124.57 ZM 210.97 121.23 C212.03,111.91 210.79,92.42 209.03,90.64 C208.55,90.15 206.93,90.20 205.34,90.74 C202.63,91.65 202.52,91.92 203.00,96.60 C203.76,104.06 203.60,120.94 202.71,126.09 C201.93,130.66 201.94,130.69 205.21,131.66 C209.45,132.91 209.70,132.45 210.97,121.23 ZM 56.00 123.17 L 73.50 117.42 L 73.80 111.30 L 74.09 105.19 L 56.80 99.59 C47.28,96.51 38.99,93.99 38.38,93.99 C36.70,94.00 36.00,99.01 36.01,110.88 C36.02,121.74 36.78,129.03 37.88,128.96 C38.22,128.93 46.38,126.33 56.00,123.17 ZM 198.70 125.25 C199.74,120.35 199.50,98.10 198.37,95.42 C197.52,93.38 197.11,93.46 179.21,99.30 L 160.91 105.26 L 161.21 111.35 L 161.50 117.45 L 179.00 123.15 C188.62,126.28 196.82,128.88 197.20,128.92 C197.59,128.96 198.27,127.31 198.70,125.25 ZM 84.03 83.76 L 86.14 81.01 L 83.85 77.76 C74.01,63.80 63.71,50.50 62.75,50.50 C59.51,50.50 41.23,76.57 43.14,78.47 C43.46,78.79 51.55,81.70 61.11,84.93 L 78.50 90.80 L 80.21 88.65 C81.15,87.47 82.87,85.26 84.03,83.76 ZM 192.80 78.53 C193.50,77.83 187.12,67.03 182.46,61.00 C177.84,55.03 172.26,49.39 171.63,50.07 C171.41,50.31 166.22,57.44 160.10,65.92 L 148.95 81.34 L 151.35 83.92 C152.68,85.34 154.25,87.46 154.85,88.63 C155.94,90.76 156.05,90.73 174.16,84.87 C184.17,81.62 192.56,78.77 192.80,78.53 ZM 39.35 74.75 C40.20,71.43 49.09,58.33 54.92,51.84 C57.71,48.73 60.00,45.76 60.00,45.24 C60.00,44.73 59.05,43.45 57.89,42.40 C55.78,40.51 55.76,40.52 48.64,48.08 C42.12,55.00 35.38,64.95 32.28,72.22 C31.17,74.82 31.27,75.17 33.28,75.98 C36.98,77.47 38.75,77.11 39.35,74.75 ZM 203.33 75.05 C204.26,74.14 200.30,65.82 195.69,59.00 C191.10,52.20 180.97,41.00 179.42,41.00 C178.66,41.00 177.30,42.14 176.39,43.52 C174.76,46.01 174.81,46.12 180.17,51.77 C186.40,58.34 190.58,64.22 194.43,71.84 C196.91,76.75 197.35,77.13 199.81,76.52 C201.29,76.16 202.87,75.50 203.33,75.05 ZM 106.00 69.51 L 109.50 68.30 L 109.77 49.15 L 110.04 30.00 L 107.18 30.00 C102.31,30.00 89.53,33.71 82.86,37.05 C79.36,38.80 76.36,40.36 76.18,40.52 C76.01,40.67 80.96,47.82 87.18,56.39 C96.71,69.53 98.80,71.88 100.49,71.35 C101.60,71.00 104.07,70.17 106.00,69.51 ZM 147.65 56.99 C153.62,48.73 158.65,41.52 158.84,40.96 C159.64,38.59 135.33,30.00 127.82,30.00 L 124.96 30.00 L 125.23 49.09 L 125.50 68.19 L 130.50 69.96 C133.25,70.93 135.79,71.79 136.15,71.87 C136.50,71.94 141.68,65.24 147.65,56.99 ZM 81.43 33.11 C87.39,30.28 97.32,27.34 107.25,25.48 C109.62,25.03 110.00,24.49 110.00,21.48 C110.00,18.31 109.74,18.00 107.13,18.00 C99.35,18.00 71.73,27.40 69.65,30.75 C68.97,31.85 72.81,37.32 73.86,36.74 C74.21,36.55 77.62,34.92 81.43,33.11 ZM 164.06 34.75 C165.09,33.51 165.95,32.01 165.97,31.41 C166.06,28.44 136.40,18.00 127.87,18.00 C125.27,18.00 125.00,18.32 125.00,21.43 C125.00,25.20 125.33,25.40 133.26,26.48 C139.22,27.29 149.97,30.91 156.51,34.31 C159.25,35.74 161.65,36.93 161.84,36.95 C162.03,36.98 163.02,35.99 164.06,34.75 ZM 102.00 167.53 C93.62,165.04 93.00,164.77 93.03,163.63 C93.04,163.01 94.29,161.01 95.81,159.18 C98.55,155.88 98.58,155.87 103.28,157.05 L 108.00 158.24 L 108.00 163.62 C108.00,166.58 107.66,168.97 107.25,168.93 C106.84,168.90 104.47,168.26 102.00,167.53 ZM 128.57 168.23 C128.26,167.92 128.00,165.60 128.00,163.08 C128.00,158.51 128.03,158.47 132.75,156.74 L 137.50 155.00 L 140.74 158.75 C142.51,160.81 143.98,162.79 143.99,163.14 C144.02,164.51 129.61,169.27 128.57,168.23 ZM 70.40 145.76 L 65.81 139.52 L 68.76 138.31 C75.42,135.60 76.32,135.74 79.25,140.02 L 82.01 144.03 L 79.37 148.02 C77.92,150.21 76.34,152.00 75.87,152.00 C75.39,152.00 72.93,149.19 70.40,145.76 ZM 156.69 146.99 L 153.88 143.02 L 156.65 139.26 C158.17,137.19 159.52,135.34 159.64,135.15 C159.83,134.85 162.12,135.45 168.78,137.55 C169.69,137.84 169.30,139.18 167.40,142.23 C164.59,146.76 161.03,151.01 160.08,150.98 C159.76,150.97 158.24,149.17 156.69,146.99 ZM 113.00 137.52 C113.00,134.62 112.57,133.93 110.43,133.39 C108.49,132.90 107.50,133.26 106.38,134.87 C104.47,137.59 103.19,137.54 99.55,134.63 C96.65,132.31 96.63,132.22 98.31,129.64 C99.74,127.47 99.82,126.68 98.78,125.01 C97.34,122.71 97.04,122.65 93.64,123.95 C91.31,124.83 91.05,124.60 89.61,120.38 L 88.08 115.87 L 91.04 114.84 C93.38,114.02 94.00,113.21 94.00,110.98 C94.00,108.65 93.47,108.04 90.96,107.49 C87.76,106.79 87.74,106.59 90.13,100.20 C90.87,98.22 91.46,97.99 94.41,98.55 C97.27,99.08 98.02,98.83 98.99,97.01 C99.93,95.26 99.85,94.49 98.58,93.09 C96.25,90.51 96.61,89.40 100.60,86.94 L 104.20 84.71 L 106.35 87.28 C109.28,90.78 113.00,89.52 113.00,85.03 C113.00,82.11 113.16,82.00 117.50,82.00 C121.84,82.00 122.00,82.11 122.00,85.03 C122.00,89.45 125.68,90.76 128.70,87.43 C131.42,84.43 131.38,84.43 135.55,87.61 L 138.97 90.22 L 137.03 92.69 C135.42,94.73 135.29,95.50 136.29,97.12 C137.26,98.69 138.21,98.96 141.07,98.48 C144.56,97.90 144.68,97.98 145.91,102.08 C147.26,106.59 146.53,107.95 142.75,107.98 C141.49,108.00 141.00,108.81 141.00,110.90 C141.00,113.24 141.59,114.01 144.08,114.88 C147.30,116.00 147.33,116.23 144.90,122.74 C144.16,124.69 143.72,124.85 141.35,123.94 C139.11,123.09 138.30,123.26 136.63,124.92 C134.74,126.81 134.73,127.04 136.31,128.79 C138.71,131.44 138.45,132.42 134.58,135.37 L 131.15 137.98 L 129.29 135.42 C127.78,133.35 126.90,132.99 124.71,133.54 C122.43,134.11 122.00,134.75 122.00,137.61 C122.00,140.96 121.95,141.00 117.50,141.00 C113.03,141.00 113.00,140.98 113.00,137.52 ZM 126.77 128.43 C135.04,124.30 138.82,115.96 136.76,106.33 C134.69,96.59 122.90,89.33 113.37,91.91 C94.67,96.98 92.44,121.79 110.01,129.41 C115.25,131.68 120.90,131.35 126.77,128.43 ZM 59.67 119.33 C59.30,118.97 59.00,115.32 59.00,111.22 L 59.00 103.78 L 62.73 104.48 C69.16,105.68 70.00,106.54 70.00,111.94 L 70.00 116.81 L 65.32 118.41 C59.86,120.27 60.50,120.16 59.67,119.33 ZM 170.25 117.34 L 166.00 115.83 L 166.00 110.46 L 166.00 105.08 L 170.25 103.94 C172.59,103.31 174.84,102.59 175.25,102.34 C175.66,102.09 176.00,105.73 176.00,110.44 C176.00,115.15 175.66,118.96 175.25,118.92 C174.84,118.88 172.59,118.17 170.25,117.34 ZM 69.25 85.88 C67.46,85.37 66.00,84.47 66.00,83.90 C66.00,82.95 69.63,77.46 73.53,72.50 C75.09,70.52 75.12,70.52 77.00,73.00 C81.33,78.68 81.45,79.54 78.50,83.41 C75.64,87.16 74.62,87.43 69.25,85.88 ZM 156.27 82.59 L 153.31 78.38 L 156.25 74.12 C159.07,70.05 159.28,69.94 161.09,71.58 C163.26,73.55 169.44,82.92 168.88,83.39 C168.67,83.57 166.42,84.40 163.87,85.25 L 159.24 86.80 L 156.27 82.59 ZM 94.62 63.74 C93.18,61.85 92.00,59.85 92.00,59.29 C92.00,58.17 98.63,55.41 103.75,54.39 L 107.00 53.75 L 107.00 59.26 C107.00,64.48 106.85,64.80 104.25,65.29 C102.74,65.58 100.54,66.12 99.37,66.49 C97.69,67.03 96.67,66.43 94.62,63.74 ZM 131.25 65.28 L 127.00 63.81 L 127.00 58.51 L 127.00 53.21 L 131.20 54.16 C133.51,54.68 137.14,55.87 139.25,56.80 L 143.10 58.50 L 139.96 62.75 C138.24,65.09 136.53,66.94 136.16,66.87 C135.80,66.80 133.59,66.09 131.25,65.28 ZM 110.50 127.12 C93.38,119.26 98.79,94.00 117.60,94.00 C127.53,94.00 134.91,101.14 134.97,110.80 C135.02,118.88 131.40,124.26 123.77,127.45 C118.95,129.47 115.42,129.38 110.50,127.12 Z" fill="rgba(1,1,1,1)"/>
</g>
</svg>