<svg xmlns="http://www.w3.org/2000/svg" width="251" height="411" viewBox="0 0 251 411">
<g>
<path d="M 144.00 150.80 L 144.00 47.90 L 140.25 46.32 C138.19,45.46 133.73,44.27 130.34,43.69 C124.22,42.63 124.17,42.64 120.58,45.80 C118.59,47.54 115.73,49.26 114.23,49.62 C110.13,50.60 109.00,51.90 109.00,55.62 C109.00,59.65 109.51,59.71 117.72,56.77 C124.79,54.23 126.45,54.86 126.17,59.97 C126.07,61.63 125.97,63.79 125.94,64.75 C125.77,69.37 124.59,71.18 119.33,74.95 C116.22,77.18 112.85,79.00 111.84,79.00 C110.39,79.00 110.00,79.77 110.00,82.61 L 110.00 86.23 L 114.56 85.54 C119.88,84.75 121.56,85.74 122.55,90.24 C122.93,91.94 124.05,94.21 125.04,95.28 C126.04,96.34 126.64,97.78 126.38,98.46 C125.85,99.84 119.28,103.32 113.37,105.36 C110.59,106.31 109.62,107.09 109.27,108.86 C109.29,95.38 109.32,84.83 109.33,83.00 C109.46,64.60 108.70,42.00 107.95,42.00 C107.46,42.00 107.32,40.65 107.65,39.00 C108.04,37.03 107.85,36.00 107.08,36.00 C106.28,36.00 106.12,34.88 106.57,32.50 C106.98,30.31 106.83,29.00 106.17,29.00 C105.53,29.00 105.35,27.64 105.69,25.50 C106.06,23.27 105.86,22.00 105.16,22.00 C104.45,22.00 104.13,19.85 104.28,16.00 C104.40,12.70 104.75,10.00 105.06,10.00 C105.37,10.00 106.61,9.08 107.82,7.95 C109.04,6.82 110.47,6.17 111.01,6.51 C111.56,6.84 112.00,6.66 112.00,6.10 C112.00,5.54 113.24,5.11 114.75,5.15 C116.26,5.18 119.98,4.89 123.01,4.49 C129.98,3.58 141.65,5.35 144.97,7.82 C148.42,10.38 148.64,15.94 146.05,34.63 C144.10,48.70 144.00,54.04 144.00,150.80 ZM 109.26 112.08 C109.36,112.53 109.50,112.86 109.67,113.03 C110.13,113.46 113.19,112.98 116.47,111.95 C121.97,110.23 122.57,110.21 124.22,111.70 C126.39,113.66 126.55,118.30 124.50,120.00 C123.68,120.68 123.00,121.80 123.00,122.47 C123.00,123.14 122.10,124.50 121.00,125.50 C119.90,126.50 119.00,127.86 119.00,128.54 C119.00,130.13 115.04,132.72 111.93,133.16 C109.82,133.45 109.50,134.03 109.50,137.50 C109.50,139.70 109.95,141.44 110.50,141.36 C111.05,141.28 112.93,140.92 114.68,140.54 C119.68,139.49 122.00,142.46 122.00,149.93 C122.00,155.10 121.67,156.11 119.44,157.87 C118.03,158.98 115.38,160.38 113.55,160.98 C111.20,161.76 110.07,162.83 109.73,164.62 C109.07,168.09 111.00,168.61 117.66,166.75 C120.68,165.91 124.05,165.46 125.15,165.75 C126.93,166.22 127.08,166.81 126.47,171.22 C126.10,173.94 125.70,177.47 125.59,179.06 C125.48,180.64 125.18,182.15 124.93,182.40 C123.82,183.52 112.67,189.00 111.51,189.00 C110.10,189.00 108.86,194.80 110.11,195.57 C111.46,196.40 122.40,194.29 122.79,193.12 C123.32,191.55 124.68,191.72 125.34,193.44 C125.64,194.23 124.97,196.05 123.84,197.48 C122.45,199.24 121.93,201.06 122.23,203.09 C122.47,204.74 122.28,206.32 121.82,206.61 C121.35,206.90 120.32,208.68 119.53,210.57 C118.21,213.75 115.32,215.74 111.00,216.44 C110.07,216.60 109.50,217.79 109.50,219.60 C109.50,220.64 109.38,221.32 109.66,221.73 C110.24,222.58 112.47,222.30 120.75,221.75 C124.00,221.53 124.46,221.76 124.18,223.50 C124.01,224.60 123.64,227.98 123.37,231.00 C122.96,235.43 122.30,237.03 119.94,239.23 C118.33,240.73 115.77,242.23 114.26,242.56 C112.74,242.90 111.00,243.31 110.40,243.50 C109.79,243.68 109.00,246.31 108.65,249.35 C108.29,252.39 107.56,256.03 107.02,257.44 L 106.98 257.55 L 107.70 254.62 C108.88,249.85 109.04,236.02 109.24,124.00 C109.24,119.92 109.25,115.91 109.26,112.08 ZM 106.24 259.50 L 106.05 260.00 L 67.29 260.00 L 106.24 259.50 ZM 28.34 260.50 L 23.21 265.25 C21.45,266.87 19.23,268.93 17.19,270.84 C19.36,268.80 21.66,266.62 23.29,265.07 L 28.07 260.50 L 28.34 260.50 Z" fill="rgba(58,51,40,1)"/>
<path d="M 142.59 224.25 C143.87,225.54 144.00,225.14 144.00,220.03 C144.00,216.27 143.67,215.19 142.65,215.58 C141.91,215.86 138.26,214.95 134.53,213.55 C126.11,210.38 125.00,210.38 118.17,213.62 C117.58,213.89 116.98,214.17 116.40,214.43 C117.82,213.44 118.87,212.16 119.53,210.57 C120.32,208.68 121.35,206.90 121.82,206.61 C122.28,206.32 122.47,204.74 122.23,203.09 C121.93,201.06 122.45,199.24 123.84,197.48 C124.97,196.05 125.64,194.23 125.34,193.44 C124.68,191.72 123.32,191.55 122.79,193.12 C122.51,193.97 116.68,195.31 112.98,195.67 C114.31,195.30 116.12,194.59 118.60,193.50 C125.37,190.50 126.09,190.47 132.50,192.88 C135.25,193.92 138.96,195.08 140.75,195.46 C144.00,196.16 144.00,196.16 144.00,192.08 C144.00,188.27 143.81,188.00 141.17,188.00 C139.62,188.00 135.62,186.89 132.30,185.54 L 126.25 183.09 L 118.22 186.29 C117.38,186.63 116.62,186.94 115.94,187.22 C119.59,185.51 124.23,183.10 124.93,182.40 C125.18,182.15 125.48,180.64 125.59,179.06 C125.70,177.47 126.10,173.94 126.47,171.22 C127.08,166.81 126.93,166.22 125.15,165.75 C124.05,165.46 120.68,165.91 117.66,166.75 C117.09,166.91 116.55,167.05 116.05,167.18 C117.66,166.67 119.56,165.90 121.73,164.86 L 125.96 162.84 L 133.73 165.88 C138.00,167.55 142.06,168.94 142.75,168.96 C143.57,168.99 144.00,167.44 144.00,164.44 C144.00,161.40 143.64,160.11 142.91,160.56 C142.31,160.93 138.06,159.99 133.48,158.46 L 125.14 155.69 L 117.65 159.07 C117.64,159.07 117.63,159.07 117.62,159.08 C118.32,158.67 118.95,158.25 119.44,157.87 C121.67,156.11 122.00,155.10 122.00,149.93 C122.00,142.46 119.68,139.49 114.68,140.54 C112.93,140.92 111.05,141.28 110.50,141.36 C109.95,141.44 109.50,139.70 109.50,137.50 C109.50,134.03 109.82,133.45 111.93,133.16 C115.04,132.72 119.00,130.13 119.00,128.54 C119.00,127.86 119.90,126.50 121.00,125.50 C122.10,124.50 123.00,123.14 123.00,122.47 C123.00,121.80 123.68,120.68 124.50,120.00 C126.55,118.30 126.39,113.66 124.22,111.70 C122.57,110.21 121.97,110.23 116.47,111.95 C113.19,112.98 110.13,113.46 109.67,113.03 C109.22,112.60 108.99,110.99 109.17,109.47 C109.43,107.26 110.29,106.42 113.37,105.36 C119.28,103.32 125.85,99.84 126.38,98.46 C126.64,97.78 126.04,96.34 125.04,95.28 C124.05,94.21 122.93,91.94 122.55,90.24 C121.59,85.86 119.96,84.80 114.98,85.48 C115.22,85.38 115.42,85.26 115.55,85.14 C116.07,84.67 118.75,83.52 121.50,82.59 C126.47,80.91 126.55,80.92 135.00,83.84 C139.68,85.45 143.61,86.82 143.75,86.89 C143.89,86.95 144.00,84.95 144.00,82.44 C144.00,79.42 143.63,78.11 142.92,78.55 C142.32,78.92 138.12,77.79 133.59,76.04 L 125.35 72.85 L 119.30 75.93 C116.99,77.10 114.62,78.12 113.09,78.64 C114.62,78.00 117.04,76.59 119.33,74.95 C124.59,71.18 125.77,69.37 125.94,64.75 C125.97,63.79 126.07,61.63 126.17,59.97 C126.45,54.86 124.79,54.23 117.72,56.77 C109.51,59.71 109.00,59.65 109.00,55.62 C109.00,51.90 110.13,50.60 114.23,49.62 C115.73,49.26 118.59,47.54 120.58,45.80 C124.17,42.64 124.22,42.63 130.34,43.69 C133.73,44.27 138.19,45.46 140.25,46.32 L 144.00 47.90 L 144.00 150.80 C144.00,222.93 144.33,254.64 145.10,256.85 C144.49,255.12 144.00,251.10 144.00,247.92 C144.00,242.24 143.95,242.14 141.42,242.60 C139.89,242.88 136.57,242.03 133.30,240.53 C130.25,239.14 127.12,238.00 126.34,238.00 C125.57,238.00 121.57,239.44 117.47,241.21 C117.21,241.32 116.96,241.43 116.71,241.53 C117.86,240.90 119.05,240.06 119.94,239.23 C122.30,237.03 122.96,235.43 123.37,231.00 C123.64,227.98 124.01,224.60 124.18,223.50 C124.46,221.76 124.00,221.53 120.75,221.75 C118.97,221.87 117.47,221.97 116.21,222.06 C117.33,221.67 118.58,221.12 119.96,220.42 C124.51,218.14 125.73,217.91 128.39,218.82 C139.02,222.47 141.92,223.58 142.59,224.25 ZM 110.00 137.54 L 110.00 140.82 L 114.75 139.48 C117.36,138.74 121.15,137.59 123.18,136.93 C126.37,135.87 127.56,135.98 132.18,137.79 C135.10,138.94 138.96,140.16 140.75,140.52 C143.97,141.15 144.00,141.12 144.00,137.30 C144.00,133.94 143.69,133.41 141.58,133.24 C140.25,133.13 136.86,132.13 134.05,131.02 C127.43,128.41 125.95,128.46 117.25,131.63 C110.26,134.17 110.00,134.39 110.00,137.54 ZM 133.58 55.82 C137.94,57.53 142.06,58.94 142.75,58.96 C143.57,58.99 144.00,57.47 144.00,54.59 C144.00,50.87 143.72,50.26 142.23,50.65 C141.26,50.90 137.18,49.71 133.16,48.00 L 125.86 44.89 L 118.97 48.20 C111.96,51.56 110.29,53.95 113.64,55.82 C115.57,56.90 118.30,56.42 122.58,54.27 C125.51,52.80 126.06,52.88 133.58,55.82 ZM 133.71 110.81 C138.00,112.52 142.06,113.95 142.75,113.97 C143.56,113.99 144.00,112.49 144.00,109.71 C144.00,105.67 143.83,105.41 141.00,105.20 C139.34,105.07 135.65,104.04 132.78,102.91 C126.53,100.45 123.35,100.88 116.68,105.06 C108.45,110.23 112.53,114.37 121.46,109.91 L 125.92 107.68 ZM 114.60 242.47 C110.51,244.35 110.00,245.11 110.00,247.21 C110.00,250.85 112.30,250.87 120.20,247.33 L 126.15 244.66 L 131.32 247.27 L 136.50 249.88 L 127.50 249.96 C122.55,250.01 116.93,250.43 115.00,250.90 C113.07,251.37 110.83,251.92 110.00,252.13 C109.18,252.33 108.04,254.07 107.47,256.00 L 107.26 256.71 C107.76,255.01 108.34,251.96 108.65,249.35 C109.00,246.31 109.79,243.68 110.40,243.50 C111.00,243.31 112.74,242.90 114.26,242.56 C114.37,242.54 114.48,242.51 114.60,242.47 ZM 28.34 260.50 L 28.88 260.00 L 67.26 260.00 L 28.34 260.50 ZM 109.71 164.73 C109.72,164.70 109.73,164.66 109.73,164.62 C110.07,162.83 111.20,161.76 113.55,160.98 C113.67,160.95 113.79,160.90 113.92,160.86 C111.08,162.35 109.99,163.42 109.71,164.73 ZM 111.68 85.98 L 110.00 86.23 L 110.00 82.61 C110.00,82.60 110.00,82.58 110.00,82.56 C110.00,85.15 110.27,85.85 111.68,85.98 ZM 109.99 191.30 C110.35,190.04 110.91,189.00 111.51,189.00 C111.75,189.00 112.40,188.77 113.29,188.40 C111.18,189.44 110.36,190.20 109.99,191.30 ZM 110.41 222.15 C110.03,222.07 109.80,221.93 109.66,221.73 C109.38,221.32 109.50,220.64 109.50,219.60 C109.50,220.77 109.81,221.62 110.41,222.15 ZM 107.23 256.82 L 106.44 259.50 L 106.24 259.50 L 107.02 257.44 C107.09,257.26 107.16,257.05 107.23,256.82 ZM 13.02 274.71 C14.11,273.70 15.59,272.32 17.19,270.84 C15.84,272.10 14.55,273.31 13.50,274.28 L 8.50 278.93 L 13.02 274.71 ZM 110.56 167.54 C109.93,167.24 109.63,166.69 109.61,165.86 C109.65,166.65 109.97,167.21 110.56,167.54 ZM 109.61 194.36 C109.56,193.72 109.63,192.93 109.78,192.15 C109.78,192.18 109.77,192.22 109.77,192.26 C109.65,193.02 109.60,193.76 109.61,194.36 ZM 110.03 217.17 C110.28,216.76 110.61,216.51 111.00,216.44 C111.18,216.41 111.37,216.38 111.54,216.35 C111.35,216.40 111.19,216.44 111.07,216.46 C110.64,216.52 110.29,216.76 110.03,217.17 ZM 110.02 81.58 C110.08,80.47 110.25,79.79 110.60,79.42 C110.26,79.81 110.08,80.50 110.02,81.58 Z" fill="rgba(87,74,55,1)"/>
<path d="M 94.34 385.92 L 91.55 388.50 L 29.00 389.13 L 29.07 339.81 C29.11,312.69 29.53,289.60 30.00,288.50 C30.47,287.40 30.89,286.95 30.94,287.50 C30.98,288.05 33.51,288.60 36.56,288.73 C39.92,288.86 42.69,289.55 43.62,290.48 C44.46,291.31 45.62,292.00 46.20,292.00 C46.82,292.00 47.02,293.16 46.68,294.85 C46.37,296.42 46.59,298.19 47.17,298.77 C48.46,300.06 50.41,303.36 52.51,307.82 C53.45,309.80 55.23,311.53 56.95,312.13 C59.01,312.85 60.38,314.47 61.87,317.93 C63.01,320.57 65.06,323.46 66.43,324.36 C68.88,325.97 70.31,329.60 71.53,337.36 C71.87,339.54 73.24,342.33 74.69,343.78 C76.09,345.18 77.90,347.94 78.71,349.92 C79.52,351.89 81.44,354.85 82.98,356.50 C84.52,358.15 86.11,360.62 86.52,362.00 C88.33,368.12 91.42,373.10 94.64,375.09 C97.62,376.93 98.02,377.63 97.60,380.27 C97.34,381.96 95.87,384.49 94.34,385.92 ZM 17.01 271.01 C19.23,268.92 21.62,266.66 23.29,265.07 L 28.07 260.50 L 106.44 259.50 L 107.47 256.00 C108.04,254.07 109.18,252.33 110.00,252.13 C110.83,251.92 113.07,251.37 115.00,250.90 C116.93,250.43 122.55,250.01 127.50,249.96 L 136.50 249.88 L 131.32 247.27 L 126.15 244.66 L 120.20 247.33 C112.30,250.87 110.00,250.85 110.00,247.21 C110.00,244.69 110.73,244.11 117.47,241.21 C121.57,239.44 125.57,238.00 126.34,238.00 C127.12,238.00 130.25,239.14 133.30,240.53 C136.57,242.03 139.89,242.88 141.42,242.60 C143.95,242.14 144.00,242.24 144.00,247.92 C144.00,251.10 144.49,255.12 145.10,256.85 L 145.65 258.45 C145.36,258.38 144.89,258.51 144.25,258.84 C141.60,260.22 138.91,258.76 137.11,254.97 C135.75,252.09 134.79,251.43 131.00,250.74 C128.52,250.30 124.61,250.20 122.30,250.52 C118.20,251.09 118.10,251.20 117.80,255.29 C117.51,259.33 117.36,259.50 113.50,260.13 C111.30,260.49 108.82,260.49 108.00,260.14 C107.18,259.79 101.78,259.75 96.00,260.05 C90.22,260.36 86.02,260.70 86.66,260.80 C88.24,261.07 87.77,263.50 85.70,265.78 C84.68,266.91 84.00,269.31 84.00,271.80 C84.00,278.63 82.44,279.00 54.11,279.00 C38.45,279.00 29.89,278.64 29.47,277.95 C29.02,277.22 28.42,277.24 27.52,277.99 C26.80,278.58 23.91,279.34 21.11,279.67 C16.41,280.23 16.00,280.11 16.00,278.20 C16.00,277.05 16.45,275.84 17.00,275.50 C17.55,275.16 18.00,273.74 18.00,272.35 C18.00,270.96 17.93,270.40 17.01,271.01 ZM 90.00 410.00 C90.00,409.36 79.12,409.00 59.36,409.00 L 28.71 409.00 L 18.33 398.79 L 7.95 388.57 L 7.95 388.36 L 11.13 391.64 C14.62,395.24 16.00,395.18 16.00,391.44 C16.00,388.65 18.00,388.32 24.25,390.05 C27.67,391.00 28.01,391.42 28.17,394.80 L 28.34 398.50 L 28.73 394.75 L 29.12 391.00 L 55.56 391.00 C71.70,391.00 82.00,391.37 82.00,391.96 C82.00,393.23 85.95,398.97 88.75,401.76 C89.99,402.99 91.00,404.35 91.00,404.77 C91.00,405.55 102.29,408.00 105.85,408.00 C106.90,408.00 108.32,408.67 109.00,409.50 C109.98,410.68 113.50,410.97 129.45,411.00 C128.33,411.00 127.18,411.00 126.00,411.00 C102.67,411.00 90.00,410.65 90.00,410.00 ZM 27.40 387.41 C26.69,389.25 25.94,389.28 20.50,387.65 C16.55,386.46 16.49,386.37 16.00,380.88 C15.73,377.82 15.64,360.06 15.81,341.41 C15.98,322.76 16.08,302.33 16.05,296.00 C16.01,289.67 16.36,283.92 16.82,283.22 C17.28,282.51 19.76,281.68 22.33,281.36 L 27.00 280.79 L 27.00 289.15 C27.00,293.74 27.23,317.37 27.50,341.66 C27.78,365.95 27.73,386.53 27.40,387.41 ZM 135.00 83.84 C126.55,80.92 126.47,80.91 121.50,82.59 C118.75,83.52 116.07,84.67 115.55,85.14 C115.03,85.61 113.57,86.00 112.30,86.00 C110.34,86.00 110.00,85.49 110.00,82.50 C110.00,79.93 110.43,79.00 111.63,79.00 C112.52,79.00 115.98,77.62 119.30,75.93 L 125.35 72.85 L 133.59 76.04 C138.12,77.79 142.32,78.92 142.92,78.55 C143.63,78.11 144.00,79.42 144.00,82.44 C144.00,84.95 143.89,86.95 143.75,86.89 C143.61,86.82 139.68,85.45 135.00,83.84 ZM 109.84 195.51 C109.57,195.23 109.53,193.77 109.77,192.26 C110.13,189.86 111.22,189.09 118.22,186.29 L 126.25 183.09 L 132.30 185.54 C135.62,186.89 139.62,188.00 141.17,188.00 C143.81,188.00 144.00,188.27 144.00,192.08 C144.00,196.16 144.00,196.16 140.75,195.46 C138.96,195.08 135.25,193.92 132.50,192.88 C126.09,190.47 125.37,190.50 118.60,193.50 C113.02,195.97 110.81,196.47 109.84,195.51 ZM 133.58 55.82 C126.06,52.88 125.51,52.80 122.58,54.27 C118.30,56.42 115.57,56.90 113.64,55.82 C110.29,53.95 111.96,51.56 118.97,48.20 L 125.86 44.89 L 133.16 48.00 C137.18,49.71 141.26,50.90 142.23,50.65 C143.72,50.26 144.00,50.87 144.00,54.59 C144.00,57.47 143.57,58.99 142.75,58.96 C142.06,58.94 137.94,57.53 133.58,55.82 ZM 142.59 224.25 C141.92,223.58 139.02,222.47 128.39,218.82 C125.73,217.91 124.51,218.14 119.96,220.42 C113.07,223.89 109.50,223.60 109.50,219.60 C109.50,217.72 110.06,216.61 111.07,216.46 C111.93,216.33 115.12,215.05 118.17,213.62 C121.15,212.20 123.04,211.41 124.92,211.22 C124.23,211.52 124.00,212.15 124.00,213.33 C124.00,214.62 124.30,215.97 124.67,216.33 C125.63,217.30 126.77,217.16 128.94,215.80 C130.82,214.63 130.45,212.61 128.79,211.61 C130.31,211.99 132.12,212.64 134.53,213.55 C138.26,214.95 141.91,215.86 142.65,215.58 C143.67,215.19 144.00,216.27 144.00,220.03 C144.00,225.14 143.87,225.54 142.59,224.25 ZM 133.71 110.81 L 125.92 107.68 L 121.46 109.91 C112.53,114.37 108.45,110.23 116.68,105.06 C123.35,100.88 126.53,100.45 132.78,102.91 C135.65,104.04 139.34,105.07 141.00,105.20 C143.83,105.41 144.00,105.67 144.00,109.71 C144.00,112.49 143.56,113.99 142.75,113.97 C142.06,113.95 138.00,112.52 133.71,110.81 ZM 133.73 165.88 L 125.96 162.84 L 121.73 164.86 C113.21,168.93 108.91,168.91 109.70,164.80 C110.04,162.98 111.88,161.66 117.65,159.07 L 125.14 155.69 L 127.46 156.46 C126.67,156.40 125.91,156.51 125.29,156.86 C123.93,157.62 124.00,158.00 125.87,159.87 C128.64,162.64 132.00,162.70 132.00,159.98 C132.00,158.96 131.22,158.02 130.15,157.36 L 133.48 158.46 C138.06,159.99 142.31,160.93 142.91,160.56 C143.64,160.11 144.00,161.40 144.00,164.44 C144.00,167.44 143.57,168.99 142.75,168.96 C142.06,168.94 138.00,167.55 133.73,165.88 ZM 110.00 137.54 C110.00,134.39 110.26,134.17 117.25,131.63 C119.57,130.79 121.37,130.16 122.90,129.75 C120.78,130.76 120.08,132.68 121.95,134.55 C122.47,135.07 124.61,135.45 126.70,135.39 C130.20,135.30 130.50,135.06 130.50,132.39 C130.50,130.60 130.19,129.80 129.16,129.40 C130.55,129.70 132.07,130.24 134.05,131.02 C136.86,132.13 140.25,133.13 141.58,133.24 C143.69,133.41 144.00,133.94 144.00,137.30 C144.00,141.12 143.97,141.15 140.75,140.52 C138.96,140.16 135.10,138.94 132.18,137.79 C127.56,135.98 126.37,135.87 123.18,136.93 C121.15,137.59 117.36,138.74 114.75,139.48 L 110.00 140.82 ZM 65.50 284.00 C63.49,284.86 36.45,285.10 32.25,284.29 C29.61,283.79 29.20,281.03 31.75,280.94 C32.71,280.91 35.30,280.70 37.50,280.47 C43.85,279.82 70.10,281.29 66.00,282.07 C63.17,282.61 62.98,282.78 65.00,282.94 C67.31,283.13 67.35,283.20 65.50,284.00 ZM 126.75 80.22 C130.46,80.70 132.81,78.69 131.04,76.55 C129.51,74.70 126.86,74.54 125.20,76.20 C123.21,78.19 123.84,79.85 126.75,80.22 ZM 125.61 243.47 C127.45,245.31 127.52,245.32 129.94,243.80 C132.47,242.22 130.88,239.00 127.57,239.00 C124.64,239.00 123.58,241.43 125.61,243.47 ZM 161.08 410.28 C158.80,410.61 152.29,410.83 141.95,410.93 C150.23,410.79 155.21,410.46 155.50,410.00 C156.39,408.56 160.99,408.77 161.08,410.25 C161.08,410.26 161.08,410.27 161.08,410.28 ZM 126.50 49.00 C126.16,49.55 126.58,50.00 127.44,50.00 C128.30,50.00 129.00,49.55 129.00,49.00 C129.00,48.45 128.58,48.00 128.06,48.00 C127.54,48.00 126.84,48.45 126.50,49.00 ZM 192.36 409.00 C177.41,409.00 167.59,409.21 163.78,409.59 C167.30,409.15 175.66,409.00 192.36,409.00 ZM 244.00 388.47 L 244.00 388.54 L 233.77 398.73 L 244.00 388.47 ZM 162.01 409.98 C162.00,409.98 162.00,409.99 162.00,410.00 C162.00,410.06 161.91,410.11 161.72,410.16 C161.78,410.10 161.87,410.03 162.01,409.98 Z" fill="rgba(114,118,116,1)"/>
<path d="M 109.00 409.50 C108.32,408.67 106.90,408.00 105.85,408.00 C102.29,408.00 91.00,405.55 91.00,404.77 C91.00,404.35 89.99,402.99 88.75,401.76 C85.95,398.97 82.00,393.23 82.00,391.96 C82.00,391.37 71.70,391.00 55.56,391.00 L 29.12 391.00 L 73.81 390.88 C98.39,390.82 119.85,390.42 121.50,390.00 C123.15,389.58 103.01,389.18 76.75,389.12 L 39.27 389.03 L 60.28 388.81 L 91.55 388.50 L 94.34 385.92 C95.87,384.49 97.34,381.96 97.60,380.27 C98.02,377.63 97.62,376.93 94.64,375.09 C91.42,373.10 88.33,368.12 86.52,362.00 C86.11,360.62 84.52,358.15 82.98,356.50 C81.44,354.85 79.52,351.89 78.71,349.92 C77.90,347.94 76.09,345.18 74.69,343.78 C73.24,342.33 71.87,339.54 71.53,337.36 C70.31,329.60 68.88,325.97 66.43,324.36 C65.06,323.46 63.01,320.57 61.87,317.93 C60.38,314.47 59.01,312.85 56.95,312.13 C55.23,311.53 53.45,309.80 52.51,307.82 C50.41,303.36 48.46,300.06 47.17,298.77 C46.59,298.19 46.37,296.42 46.68,294.85 C47.02,293.16 46.82,292.00 46.20,292.00 C45.62,292.00 44.46,291.31 43.62,290.48 C42.69,289.55 39.92,288.86 36.56,288.73 C33.51,288.60 30.98,288.05 30.94,287.50 C30.89,286.95 30.47,287.40 30.00,288.50 C29.53,289.60 29.11,312.69 29.07,339.81 L 29.00 389.00 L 29.00 286.00 L 60.75 285.90 C81.86,285.83 91.33,285.49 89.00,284.89 C87.03,284.38 75.35,284.26 62.35,284.62 C49.62,284.97 37.13,284.95 34.60,284.57 C34.49,284.55 34.37,284.53 34.27,284.51 C41.84,285.05 63.70,284.77 65.50,284.00 C67.35,283.20 67.31,283.13 65.00,282.94 C62.98,282.78 63.17,282.61 66.00,282.07 C70.10,281.29 43.85,279.82 37.50,280.47 C35.30,280.70 32.71,280.91 31.75,280.94 C31.73,280.94 31.72,280.94 31.70,280.94 C32.13,280.77 32.65,280.61 33.25,280.46 L 36.50 279.67 L 33.50 279.25 C31.85,279.01 30.05,278.45 29.50,277.99 C29.07,277.64 28.24,277.69 27.42,278.06 C27.46,278.03 27.49,278.01 27.52,277.99 C28.42,277.24 29.02,277.22 29.47,277.95 C29.89,278.64 38.45,279.00 54.11,279.00 C82.44,279.00 84.00,278.63 84.00,271.80 C84.00,269.31 84.68,266.91 85.70,265.78 C87.77,263.50 88.24,261.07 86.66,260.80 C86.02,260.70 90.22,260.36 96.00,260.05 C101.78,259.75 107.18,259.79 108.00,260.14 C108.82,260.49 111.30,260.49 113.50,260.13 C117.36,259.50 117.51,259.33 117.80,255.29 C118.10,251.20 118.20,251.09 122.30,250.52 C124.61,250.20 128.52,250.30 131.00,250.74 C134.79,251.43 135.75,252.09 137.11,254.97 C138.91,258.76 141.60,260.22 144.25,258.84 C145.38,258.25 146.00,258.30 146.00,258.96 C146.00,259.66 158.81,260.00 185.07,260.00 L 224.15 260.00 L 232.82 268.18 C237.60,272.68 242.06,277.04 242.75,277.87 C243.72,279.04 244.00,291.76 244.00,333.92 L 244.00 388.47 L 233.77 398.73 L 223.54 409.00 L 192.85 409.00 C169.24,409.00 162.05,409.29 161.66,410.25 C161.26,411.25 161.14,411.25 161.08,410.25 C160.99,408.77 156.39,408.56 155.50,410.00 C155.12,410.62 146.36,411.00 132.56,411.00 C113.94,411.00 110.04,410.75 109.00,409.50 ZM 26.54 390.84 C26.00,390.57 25.26,390.33 24.25,390.05 C18.00,388.32 16.00,388.65 16.00,391.44 C16.00,395.18 14.62,395.24 11.13,391.64 L 7.95 388.35 L 8.22 333.64 L 8.50 278.93 L 13.25 274.38 C17.80,270.02 18.00,269.93 18.00,272.35 C18.00,273.74 17.55,275.16 17.00,275.50 C16.45,275.84 16.00,277.05 16.00,278.20 C16.00,280.11 16.41,280.23 21.11,279.67 C23.41,279.40 25.77,278.84 26.93,278.32 C26.85,278.37 26.77,278.42 26.69,278.48 C25.70,279.21 25.34,279.96 25.88,280.15 C25.94,280.17 25.99,280.43 26.04,280.91 L 22.33 281.36 C19.76,281.68 17.28,282.51 16.82,283.22 C16.36,283.92 16.01,289.67 16.05,296.00 C16.08,302.33 15.98,322.76 15.81,341.41 C15.64,360.06 15.73,377.82 16.00,380.88 C16.49,386.37 16.55,386.46 20.50,387.65 C22.09,388.12 23.28,388.46 24.19,388.65 C23.73,388.63 23.22,388.58 22.64,388.51 L 18.50 388.04 L 23.25 389.58 C24.79,390.08 25.83,390.44 26.54,390.84 ZM 120.26 366.75 C122.55,369.09 125.00,371.00 125.71,371.00 C128.01,371.00 135.10,363.74 137.59,358.83 C138.92,356.19 140.68,351.49 141.49,348.39 C142.67,343.85 143.95,341.79 148.03,337.88 C153.61,332.52 158.00,324.18 158.75,317.48 L 159.23 313.25 L 154.37 311.38 C148.37,309.06 138.04,309.04 132.68,311.33 C127.31,313.62 128.90,315.25 134.61,313.31 C140.00,311.47 153.00,311.92 155.54,314.03 C156.74,315.03 156.98,316.28 156.49,318.89 C154.86,327.59 148.12,336.09 139.32,340.55 C134.57,342.95 132.27,343.48 126.52,343.49 C122.66,343.49 118.26,343.15 116.75,342.73 C113.20,341.74 113.04,343.69 116.57,345.02 C119.72,346.23 130.19,346.26 135.26,345.08 C137.40,344.58 139.24,344.58 139.55,345.08 C141.28,347.88 133.36,363.41 128.61,366.52 C125.51,368.55 123.41,367.57 119.05,362.07 C110.15,350.83 111.21,333.41 121.53,321.14 C123.53,318.77 123.80,318.00 122.63,318.00 C120.23,318.00 117.05,321.89 113.62,329.00 C107.56,341.62 110.16,356.43 120.26,366.75 ZM 223.00 323.50 C223.00,347.83 223.35,361.00 224.00,361.00 C224.65,361.00 225.00,347.00 225.00,321.00 L 225.00 281.00 L 230.50 280.84 L 227.16 279.38 C223.45,277.76 218.28,278.46 221.34,280.17 C222.25,280.68 223.00,281.75 223.00,282.55 C223.00,283.78 218.78,284.02 195.25,284.10 C179.99,284.15 166.38,284.56 165.00,285.00 C163.62,285.44 176.03,285.85 192.75,285.90 L 223.00 286.00 ZM 102.04 335.43 C105.90,339.61 108.00,341.00 108.00,339.36 C108.00,339.01 106.17,336.73 103.92,334.30 C99.60,329.61 97.63,325.76 96.13,319.08 C95.33,315.50 95.45,314.83 97.11,313.94 C100.34,312.22 111.50,311.64 116.63,312.93 C125.77,315.23 135.32,324.66 138.18,334.20 C138.80,336.29 139.70,338.00 140.16,338.00 C143.42,338.00 136.63,322.64 131.31,317.97 C129.45,316.33 125.58,313.77 122.71,312.27 C116.11,308.83 105.25,308.44 97.63,311.38 L 92.76 313.26 L 93.37 317.72 C94.26,324.15 97.21,330.19 102.04,335.43 ZM 223.49 393.25 C224.18,395.39 224.24,395.40 224.71,393.50 C224.99,392.40 225.67,390.94 226.23,390.25 C226.93,389.39 226.89,389.00 226.12,389.00 C225.51,389.00 225.00,388.10 225.00,387.00 C225.00,385.90 224.55,385.00 224.00,385.00 C223.45,385.00 223.00,385.90 223.00,387.00 C223.00,388.96 222.28,389.00 183.25,389.16 C157.39,389.27 146.82,389.58 153.00,390.05 C158.23,390.45 176.06,390.83 192.63,390.89 L 222.77 391.00 ZM 121.95 134.55 C118.94,131.54 122.58,128.38 128.15,129.17 C130.00,129.43 130.50,130.12 130.50,132.39 C130.50,135.06 130.20,135.30 126.70,135.39 C124.61,135.45 122.47,135.07 121.95,134.55 ZM 103.38 291.37 C105.46,293.07 121.44,293.44 131.22,292.02 C135.14,291.45 132.45,291.22 120.83,291.12 C112.21,291.06 104.34,290.74 103.33,290.42 C101.60,289.87 101.60,289.92 103.38,291.37 ZM 126.75 80.22 C123.84,79.85 123.21,78.19 125.20,76.20 C126.86,74.54 129.51,74.70 131.04,76.55 C132.81,78.69 130.46,80.70 126.75,80.22 ZM 124.67 216.33 C124.30,215.97 124.00,214.62 124.00,213.33 C124.00,211.52 124.55,211.00 126.46,211.00 C129.86,211.00 131.51,214.20 128.94,215.80 C126.77,217.16 125.63,217.30 124.67,216.33 ZM 125.61 243.47 C123.58,241.43 124.64,239.00 127.57,239.00 C130.88,239.00 132.47,242.22 129.94,243.80 C127.52,245.32 127.45,245.31 125.61,243.47 ZM 125.87 159.87 C124.00,158.00 123.93,157.62 125.29,156.86 C127.64,155.55 132.00,157.57 132.00,159.98 C132.00,162.70 128.64,162.64 125.87,159.87 ZM 126.50 49.00 C126.84,48.45 127.54,48.00 128.06,48.00 C128.58,48.00 129.00,48.45 129.00,49.00 C129.00,49.55 128.30,50.00 127.44,50.00 C126.58,50.00 126.16,49.55 126.50,49.00 ZM 27.34 326.63 C27.77,354.39 27.94,384.77 27.42,387.31 C27.73,385.55 27.77,365.37 27.50,341.66 C27.45,336.56 27.39,331.50 27.34,326.63 Z" fill="rgba(138,145,144,1)"/>
<path d="M 28.17 394.81 C28.01,391.33 27.72,391.03 23.25,389.58 L 18.50 388.04 L 22.64 388.51 C25.79,388.87 26.93,388.61 27.39,387.43 C28.43,384.72 26.97,280.53 25.88,280.15 C25.34,279.96 25.70,279.21 26.69,278.48 C27.69,277.75 28.94,277.54 29.50,277.99 C30.05,278.45 31.85,279.01 33.50,279.25 L 36.50 279.67 L 33.25 280.46 C28.48,281.62 29.18,283.75 34.60,284.57 C37.13,284.95 49.62,284.97 62.35,284.62 C75.35,284.26 87.03,284.38 89.00,284.89 C91.33,285.49 81.86,285.83 60.75,285.90 L 29.00 286.00 L 29.00 337.50 L 29.00 389.00 L 76.75 389.12 C103.01,389.18 123.15,389.58 121.50,390.00 C119.85,390.42 98.39,390.82 73.81,390.88 L 29.12 391.00 L 28.73 394.75 L 28.34 398.50 L 28.17 394.81 ZM 223.49 393.25 L 222.77 391.00 L 192.63 390.89 C176.06,390.83 158.23,390.45 153.00,390.05 C146.82,389.58 157.39,389.27 183.25,389.16 C222.28,389.00 223.00,388.96 223.00,387.00 C223.00,385.90 223.45,385.00 224.00,385.00 C224.55,385.00 225.00,385.90 225.00,387.00 C225.00,388.10 225.51,389.00 226.12,389.00 C226.89,389.00 226.93,389.39 226.23,390.25 C225.67,390.94 224.99,392.40 224.71,393.50 C224.24,395.40 224.18,395.39 223.49,393.25 ZM 120.26 366.75 C110.16,356.43 107.56,341.62 113.62,329.00 C117.05,321.89 120.23,318.00 122.63,318.00 C123.80,318.00 123.53,318.77 121.53,321.14 C111.21,333.41 110.15,350.83 119.05,362.07 C123.41,367.57 125.51,368.55 128.61,366.52 C133.36,363.41 141.28,347.88 139.55,345.08 C139.24,344.58 137.40,344.58 135.26,345.08 C130.19,346.26 119.72,346.23 116.57,345.02 C113.04,343.69 113.20,341.74 116.75,342.73 C118.26,343.15 122.66,343.49 126.52,343.49 C132.27,343.48 134.57,342.95 139.32,340.55 C148.12,336.09 154.86,327.59 156.49,318.89 C156.98,316.28 156.74,315.03 155.54,314.03 C153.00,311.92 140.00,311.47 134.61,313.31 C128.90,315.25 127.31,313.62 132.68,311.33 C138.04,309.04 148.37,309.06 154.37,311.38 L 159.23 313.25 L 158.75 317.48 C158.00,324.18 153.61,332.52 148.03,337.88 C143.95,341.79 142.67,343.85 141.49,348.39 C140.68,351.49 138.92,356.19 137.59,358.83 C135.10,363.74 128.01,371.00 125.71,371.00 C125.00,371.00 122.55,369.09 120.26,366.75 ZM 223.00 323.50 L 223.00 286.00 L 192.75 285.90 C176.03,285.85 163.62,285.44 165.00,285.00 C166.38,284.56 179.99,284.15 195.25,284.10 C218.78,284.02 223.00,283.78 223.00,282.55 C223.00,281.75 222.25,280.68 221.34,280.17 C218.28,278.46 223.45,277.76 227.16,279.38 L 230.50 280.84 L 227.75 280.92 L 225.00 281.00 L 225.00 321.00 C225.00,347.00 224.65,361.00 224.00,361.00 C223.35,361.00 223.00,347.83 223.00,323.50 ZM 102.04 335.43 C97.21,330.19 94.26,324.15 93.37,317.72 L 92.76 313.26 L 97.63 311.38 C105.25,308.44 116.11,308.83 122.71,312.27 C125.58,313.77 129.45,316.33 131.31,317.97 C136.63,322.64 143.42,338.00 140.16,338.00 C139.70,338.00 138.80,336.29 138.18,334.20 C135.32,324.66 125.77,315.23 116.63,312.93 C111.50,311.64 100.34,312.22 97.11,313.94 C95.45,314.83 95.33,315.50 96.13,319.08 C97.63,325.76 99.60,329.61 103.92,334.30 C106.17,336.73 108.00,339.01 108.00,339.36 C108.00,341.00 105.90,339.61 102.04,335.43 ZM 103.38 291.37 C101.60,289.92 101.60,289.87 103.33,290.42 C104.34,290.74 112.21,291.06 120.83,291.12 C132.45,291.22 135.14,291.45 131.22,292.02 C121.44,293.44 105.46,293.07 103.38,291.37 Z" fill="rgba(161,189,187,1)"/>
</g>
</svg>
