<svg xmlns="http://www.w3.org/2000/svg" width="1086" height="965" viewBox="0 0 1086 965">
<g>
<path d="M 564.00 426.59 L 564.00 324.30 L 560.25 322.69 C549.46,318.07 543.79,317.94 539.77,322.25 C538.11,324.04 535.12,325.96 533.12,326.53 C530.20,327.35 529.44,328.10 529.18,330.36 C528.55,335.79 529.31,336.17 536.01,333.75 C541.22,331.88 542.24,331.77 543.00,333.00 C543.54,333.88 543.50,334.69 542.90,335.06 C542.35,335.40 541.70,337.89 541.46,340.59 C541.21,343.29 540.24,346.95 539.30,348.72 C537.76,351.61 536.21,352.63 530.85,354.34 C529.69,354.70 529.16,356.32 528.68,361.32 C528.58,336.33 528.34,318.71 527.93,318.46 C527.46,318.16 527.33,316.59 527.66,314.96 C527.98,313.33 527.82,312.00 527.30,312.00 C526.78,312.00 526.30,310.31 526.24,308.25 C526.18,306.19 526.11,303.42 526.07,302.10 C526.03,300.79 525.57,299.19 525.04,298.55 C524.51,297.91 524.19,295.07 524.34,292.24 C524.54,288.31 525.15,286.61 526.89,285.09 C533.84,279.07 563.01,280.00 567.23,286.39 C568.48,288.27 568.09,295.98 566.00,311.00 C564.11,324.58 564.00,330.81 564.00,426.59 ZM 528.72 375.89 C528.76,374.97 528.79,373.77 528.82,372.30 L 529.00 363.09 L 532.66 362.40 C536.80,361.63 539.00,363.50 539.00,367.79 C539.00,369.11 539.90,371.45 540.99,372.99 L 542.98 375.78 L 539.74 378.24 C537.96,379.59 534.81,381.01 532.75,381.39 C529.27,382.04 529.00,382.34 529.00,385.55 C529.00,388.52 529.33,389.00 531.38,389.00 C532.69,389.00 535.34,388.34 537.28,387.53 C541.76,385.65 542.41,386.87 540.53,393.66 C537.52,404.57 536.49,406.44 532.91,407.63 C529.82,408.64 529.47,409.16 529.19,413.02 L 528.87 417.28 L 532.37 416.71 C536.51,416.04 537.49,416.98 538.37,422.50 C538.72,424.70 539.28,427.93 539.61,429.67 C540.13,432.47 539.84,433.03 537.15,434.42 C535.47,435.29 532.95,436.00 531.55,436.00 C529.31,436.00 529.00,436.42 529.00,439.44 C529.00,441.33 529.39,443.13 529.88,443.42 C530.36,443.72 533.07,443.28 535.90,442.44 C538.73,441.60 541.37,441.11 541.77,441.36 C542.17,441.61 542.47,445.46 542.43,449.92 C542.35,457.93 542.31,458.06 538.98,460.51 C536.99,461.98 534.26,463.00 532.31,463.00 L 529.00 463.00 L 528.82 453.25 C528.75,449.91 528.67,447.91 528.57,447.24 C528.70,423.33 528.75,397.83 528.72,375.89 ZM 528.48 462.37 C528.49,462.54 528.51,462.70 528.52,462.86 L 529.20 471.22 L 532.90 470.63 L 536.60 470.04 L 537.74 475.49 C538.92,481.13 538.60,485.77 536.90,487.50 C536.35,488.05 534.47,488.99 532.71,489.58 C529.98,490.50 529.45,491.21 529.19,494.33 C528.84,498.43 529.74,498.79 535.90,497.03 C540.04,495.84 541.34,496.50 539.96,499.08 C539.22,500.45 539.23,502.77 539.96,506.76 C540.96,512.14 540.89,512.58 538.77,514.17 C537.54,515.10 535.04,516.15 533.22,516.49 C529.54,517.18 528.00,519.83 528.00,525.50 C528.00,526.89 527.75,528.75 527.40,530.18 C527.87,524.36 528.25,496.28 528.48,462.37 Z" fill="rgba(51,49,45,1)"/>
<path d="M 553.73 440.88 C558.00,442.55 562.06,443.94 562.75,443.96 C563.57,443.99 564.00,442.43 564.00,439.39 C564.00,435.64 563.71,434.90 562.44,435.38 C561.59,435.71 557.42,434.81 553.17,433.38 L 545.46 430.77 L 537.87 434.03 C539.89,432.90 540.08,432.19 539.61,429.67 C539.28,427.93 538.72,424.70 538.37,422.50 C537.49,416.98 536.51,416.04 532.37,416.71 L 528.87 417.28 L 529.19 413.02 C529.47,409.16 529.82,408.64 532.91,407.63 C536.49,406.44 537.52,404.57 540.53,393.66 C542.41,386.87 541.76,385.65 537.28,387.53 C535.34,388.34 532.69,389.00 531.38,389.00 C529.33,389.00 529.00,388.52 529.00,385.55 C529.00,382.34 529.27,382.04 532.75,381.39 C534.81,381.01 537.96,379.59 539.74,378.24 L 542.98 375.78 L 540.99 372.99 C539.90,371.45 539.00,369.11 539.00,367.79 C539.00,363.50 536.80,361.63 532.66,362.40 L 529.00 363.09 L 528.82 372.30 C528.70,378.17 528.49,379.69 528.24,376.50 C528.02,373.75 528.14,367.76 528.51,363.18 C529.04,356.71 529.56,354.75 530.85,354.34 C536.21,352.63 537.76,351.61 539.30,348.72 C540.24,346.95 541.21,343.29 541.46,340.59 C541.70,337.89 542.35,335.40 542.90,335.06 C543.50,334.69 543.54,333.88 543.00,333.00 C542.24,331.77 541.22,331.88 536.01,333.75 C529.31,336.17 528.55,335.79 529.18,330.36 C529.44,328.10 530.20,327.35 533.12,326.53 C535.12,325.96 538.11,324.04 539.77,322.25 C543.79,317.94 549.46,318.07 560.25,322.69 L 564.00 324.30 L 564.00 426.59 C564.00,490.62 564.36,529.83 564.98,531.43 C564.44,530.02 564.00,525.93 564.00,522.33 C564.00,515.85 563.97,515.79 561.51,516.41 C559.91,516.81 556.88,516.13 553.04,514.52 C549.75,513.13 546.56,512.00 545.94,512.00 C545.33,512.00 541.91,513.35 538.34,515.00 C534.78,516.65 531.44,518.00 530.93,518.00 C530.42,518.00 530.00,519.41 530.00,521.13 C530.00,524.12 530.15,524.24 533.31,523.72 C535.13,523.43 538.73,522.20 541.31,520.98 L 546.00 518.78 L 550.75 521.12 L 555.50 523.46 L 545.00 524.08 C539.22,524.42 533.30,525.04 531.83,525.44 C529.43,526.10 529.11,525.88 528.72,523.34 C528.40,521.20 528.26,521.53 528.15,524.68 C528.10,526.02 527.91,527.61 527.65,528.98 C527.87,527.80 528.00,526.53 528.00,525.50 C528.00,519.83 529.54,517.18 533.22,516.49 C535.04,516.15 537.54,515.10 538.77,514.17 C540.89,512.58 540.96,512.14 539.96,506.76 C539.23,502.77 539.22,500.45 539.96,499.08 C541.34,496.50 540.04,495.84 535.90,497.03 C529.74,498.79 528.84,498.43 529.19,494.33 C529.45,491.21 529.98,490.50 532.71,489.58 C534.47,488.99 536.35,488.05 536.90,487.50 C538.60,485.77 538.92,481.13 537.74,475.49 L 536.60 470.04 L 532.90 470.63 L 529.20 471.22 L 528.52 462.86 C528.15,458.26 528.02,452.02 528.24,449.00 C528.50,445.31 528.69,446.71 528.82,453.25 L 529.00 463.00 L 532.31 463.00 C534.26,463.00 536.99,461.98 538.98,460.51 C542.31,458.06 542.35,457.93 542.43,449.92 C542.47,445.46 542.17,441.61 541.77,441.36 C541.37,441.11 538.73,441.60 535.90,442.44 C533.07,443.28 530.36,443.72 529.88,443.42 C529.39,443.13 529.00,441.33 529.00,439.44 C529.00,436.42 529.31,436.00 531.55,436.00 C532.42,436.00 533.72,435.73 534.98,435.31 C530.92,437.18 530.01,438.09 530.21,439.48 C530.63,442.41 536.01,442.66 541.53,439.99 L 545.96 437.84 ZM 555.00 359.81 C559.67,361.46 563.61,362.85 563.75,362.90 C563.89,362.96 564.00,360.93 564.00,358.39 C564.00,354.67 563.71,353.90 562.47,354.37 C561.63,354.69 557.54,353.61 553.38,351.95 L 545.81 348.95 L 539.40 351.97 C535.88,353.64 532.32,355.00 531.50,355.00 C530.46,355.00 530.00,356.05 530.00,358.41 C530.00,362.30 530.11,362.30 540.50,358.83 L 546.50 356.82 ZM 559.50 415.60 C561.70,416.23 563.61,416.80 563.75,416.87 C563.89,416.94 564.00,414.95 564.00,412.44 C564.00,409.76 563.60,408.13 563.03,408.48 C562.50,408.81 558.71,407.92 554.60,406.50 C546.54,403.72 545.38,403.78 535.76,407.36 C530.41,409.36 530.03,409.71 530.01,412.75 C530.01,414.54 530.42,416.00 530.94,416.00 C531.46,416.00 535.11,414.83 539.06,413.41 C546.23,410.82 546.24,410.82 550.87,412.64 C553.42,413.65 557.30,414.98 559.50,415.60 ZM 558.98 469.96 C560.92,470.42 562.84,470.84 563.25,470.90 C563.66,470.95 564.00,469.02 564.00,466.59 C564.00,462.63 563.79,462.24 561.94,462.73 C560.80,463.02 556.72,462.03 552.87,460.52 L 545.86 457.77 L 539.10 460.88 C535.38,462.60 531.81,464.00 531.17,464.00 C530.53,464.00 530.00,465.40 530.00,467.11 C530.00,470.16 530.07,470.21 533.75,469.53 C535.81,469.15 539.42,468.00 541.77,466.97 C545.98,465.12 546.12,465.12 550.76,467.11 C553.34,468.22 557.05,469.50 558.98,469.96 ZM 561.55 498.08 C562.94,500.32 564.00,498.62 564.00,494.14 C564.00,489.59 563.85,489.31 561.67,489.72 C560.39,489.97 556.58,489.01 553.20,487.58 C549.82,486.16 546.47,485.00 545.75,485.00 C543.14,485.00 530.00,491.96 530.00,493.34 C530.00,496.81 532.59,497.11 539.77,494.45 L 546.78 491.85 L 550.64 493.80 C552.76,494.88 555.96,496.07 557.74,496.45 C559.52,496.84 561.23,497.57 561.55,498.08 ZM 556.00 387.35 C559.58,388.75 562.84,389.92 563.25,389.95 C563.66,389.98 564.00,387.81 564.00,385.14 C564.00,380.62 563.84,380.31 561.72,380.71 C560.47,380.95 556.42,380.01 552.73,378.62 L 546.02 376.10 L 539.60 379.10 C533.23,382.08 531.59,383.77 532.57,386.32 C533.20,387.96 538.55,387.33 541.75,385.24 C544.42,383.50 547.19,383.91 556.00,387.35 ZM 557.50 333.60 C560.80,334.86 563.61,335.92 563.75,335.95 C563.89,335.98 564.00,333.79 564.00,331.09 C564.00,326.79 563.77,326.25 562.13,326.68 C561.10,326.95 557.35,326.00 553.80,324.58 C550.25,323.16 546.58,322.00 545.64,322.00 C544.71,322.00 541.26,323.36 537.97,325.01 C533.80,327.12 532.00,328.61 532.00,329.95 C532.00,332.90 535.25,333.27 541.09,330.96 C545.57,329.20 546.82,329.06 548.96,330.09 C550.36,330.76 554.20,332.34 557.50,333.60 Z" fill="rgba(87,72,50,1)"/>
<path d="M 517.03 660.37 C515.94,661.46 453.51,662.43 451.25,661.40 C450.27,660.96 450.00,650.10 450.00,612.00 C450.00,585.14 450.27,562.45 450.61,561.58 C451.41,559.49 460.68,559.43 464.64,561.49 C466.21,562.32 468.54,562.99 469.81,562.99 C471.08,563.00 471.86,563.42 471.54,563.93 C471.23,564.44 471.45,565.16 472.05,565.53 C472.78,565.98 472.61,566.77 471.55,567.95 C470.19,569.44 470.16,570.11 471.28,572.60 C473.81,578.18 476.46,581.84 479.10,583.40 C480.57,584.27 482.68,586.89 483.78,589.24 C484.89,591.58 486.94,594.49 488.34,595.69 C489.74,596.90 491.42,599.83 492.06,602.19 C494.88,612.51 496.21,615.88 498.16,617.63 C499.87,619.18 502.01,622.86 502.43,625.00 C502.49,625.28 503.76,626.72 505.27,628.20 C506.77,629.69 508.00,631.63 508.00,632.51 C508.00,635.69 512.24,643.32 516.14,647.14 C518.99,649.93 519.95,651.58 519.52,652.94 C519.19,653.99 518.72,655.86 518.48,657.10 C518.24,658.34 517.59,659.81 517.03,660.37 ZM 510.64 682.50 C510.14,681.21 505.81,680.99 480.28,680.96 C458.77,680.94 449.93,680.59 448.45,679.71 C447.33,679.05 442.69,674.60 438.15,669.84 L 432.72 664.14 L 433.52 664.93 C437.06,668.41 437.14,668.44 436.96,666.00 C436.62,661.31 436.81,661.10 440.75,661.71 C447.87,662.82 448.99,663.62 449.17,667.73 L 449.34 671.50 L 449.73 667.75 L 450.12 664.00 L 477.31 664.08 C492.26,664.12 503.90,664.40 503.16,664.69 C502.23,665.06 502.53,665.58 504.14,666.38 C505.42,667.02 506.97,668.56 507.59,669.81 C510.52,675.69 517.02,679.26 526.50,680.20 C528.72,680.42 529.42,680.96 529.21,682.25 C528.94,683.81 530.40,683.99 548.68,684.00 C547.81,684.00 546.92,684.00 546.00,684.00 C516.00,684.00 511.13,683.79 510.64,682.50 ZM 448.43 659.22 C448.12,660.20 447.11,660.96 446.18,660.91 C443.07,660.74 437.51,658.82 436.75,657.66 C435.44,655.64 436.70,558.07 438.06,556.43 C438.76,555.59 441.04,555.00 443.62,555.00 L 448.00 555.00 L 448.03 560.75 C448.05,563.91 448.28,586.96 448.53,611.97 C448.79,636.98 448.74,658.24 448.43,659.22 ZM 439.79 543.24 C439.85,543.18 439.92,543.12 439.98,543.07 L 449.96 534.00 L 518.06 534.00 C517.71,534.02 517.35,534.04 517.00,534.06 C511.77,534.37 508.02,534.70 508.66,534.81 C510.10,535.05 509.84,537.29 508.11,539.36 C507.40,540.22 506.64,542.80 506.42,545.10 C506.19,547.47 505.29,549.80 504.33,550.50 C503.41,551.18 499.01,552.01 494.57,552.36 C481.99,553.34 453.07,553.11 451.02,552.01 C449.73,551.32 448.13,551.47 445.62,552.51 C443.67,553.33 440.97,554.00 439.64,554.00 C437.04,554.00 435.55,551.85 437.10,550.30 C437.61,549.79 438.48,547.83 439.02,545.95 L 439.79 543.24 ZM 526.11 533.84 L 527.02 531.43 C527.56,530.02 528.07,526.99 528.15,524.68 C528.26,521.53 528.40,521.20 528.72,523.34 C529.11,525.88 529.43,526.10 531.83,525.44 C533.30,525.04 539.22,524.42 545.00,524.08 L 555.50 523.46 L 550.75 521.12 L 546.00 518.78 L 541.31 520.98 C538.73,522.20 535.13,523.43 533.31,523.72 C530.15,524.24 530.00,524.12 530.00,521.13 C530.00,519.41 530.42,518.00 530.93,518.00 C531.44,518.00 534.78,516.65 538.34,515.00 C541.91,513.35 545.33,512.00 545.94,512.00 C546.56,512.00 549.75,513.13 553.04,514.52 C556.88,516.13 559.91,516.81 561.51,516.41 C563.97,515.79 564.00,515.85 564.00,522.33 C564.00,525.93 564.44,530.02 564.98,531.43 L 565.74 533.44 C562.15,533.32 559.95,533.20 559.61,533.07 C558.57,532.69 557.22,530.83 556.61,528.94 C555.56,525.68 555.19,525.46 549.50,524.66 C545.63,524.12 542.52,524.20 540.75,524.89 C538.40,525.80 538.00,526.52 538.00,529.87 L 538.00 533.80 L 533.45 534.16 C530.95,534.36 528.36,534.29 527.70,534.01 C527.50,533.93 526.94,533.87 526.11,533.84 ZM 555.00 359.81 L 546.50 356.82 L 540.50 358.83 C530.11,362.30 530.00,362.30 530.00,358.41 C530.00,356.05 530.46,355.00 531.50,355.00 C532.32,355.00 535.88,353.64 539.40,351.97 L 545.81 348.95 L 553.38 351.95 C557.54,353.61 561.63,354.69 562.47,354.37 C563.71,353.90 564.00,354.67 564.00,358.39 C564.00,360.93 563.89,362.96 563.75,362.90 C563.61,362.85 559.67,361.46 555.00,359.81 ZM 558.98 469.96 C557.05,469.50 553.34,468.22 550.76,467.11 C546.12,465.12 545.98,465.12 541.77,466.97 C539.42,468.00 535.81,469.15 533.75,469.53 C530.07,470.21 530.00,470.16 530.00,467.11 C530.00,465.40 530.53,464.00 531.17,464.00 C531.81,464.00 535.38,462.60 539.10,460.88 L 545.86 457.77 L 552.87 460.52 C556.72,462.03 560.80,463.02 561.94,462.73 C563.79,462.24 564.00,462.63 564.00,466.59 C564.00,469.02 563.66,470.95 563.25,470.90 C562.84,470.84 560.92,470.42 558.98,469.96 ZM 553.73 440.88 L 545.96 437.84 L 541.53 439.99 C536.01,442.66 530.63,442.41 530.21,439.48 C529.97,437.82 531.32,436.85 537.69,434.11 L 545.46 430.77 L 553.17 433.38 C557.42,434.81 561.59,435.71 562.44,435.38 C563.71,434.90 564.00,435.64 564.00,439.39 C564.00,442.43 563.57,443.99 562.75,443.96 C562.06,443.94 558.00,442.55 553.73,440.88 ZM 561.55 498.08 C561.23,497.57 559.52,496.84 557.74,496.45 C555.96,496.07 552.76,494.88 550.64,493.80 L 546.78 491.85 L 539.77 494.45 C532.59,497.11 530.00,496.81 530.00,493.34 C530.00,491.96 543.14,485.00 545.75,485.00 C546.47,485.00 549.82,486.16 553.20,487.58 C556.58,489.01 560.39,489.97 561.67,489.72 C563.85,489.31 564.00,489.59 564.00,494.14 C564.00,498.62 562.94,500.32 561.55,498.08 ZM 556.00 387.35 C547.19,383.91 544.42,383.50 541.75,385.24 C538.55,387.33 533.20,387.96 532.57,386.32 C531.59,383.77 533.23,382.08 539.60,379.10 L 546.02 376.10 L 552.73 378.62 C556.42,380.01 560.47,380.95 561.72,380.71 C563.84,380.31 564.00,380.62 564.00,385.14 C564.00,387.81 563.66,389.98 563.25,389.95 C562.84,389.92 559.58,388.75 556.00,387.35 ZM 557.50 333.60 C554.20,332.34 550.36,330.76 548.96,330.09 C546.82,329.06 545.57,329.20 541.09,330.96 C535.25,333.27 532.00,332.90 532.00,329.95 C532.00,328.61 533.80,327.12 537.97,325.01 C541.26,323.36 544.71,322.00 545.64,322.00 C546.58,322.00 550.25,323.16 553.80,324.58 C557.35,326.00 561.10,326.95 562.13,326.68 C563.77,326.25 564.00,326.79 564.00,331.09 C564.00,333.79 563.89,335.98 563.75,335.95 C563.61,335.92 560.80,334.86 557.50,333.60 ZM 559.50 415.60 C557.30,414.98 553.42,413.65 550.87,412.64 C546.24,410.82 546.23,410.82 539.06,413.41 C535.11,414.83 531.46,416.00 530.94,416.00 C530.42,416.00 530.01,414.54 530.01,412.75 C530.03,409.71 530.41,409.36 535.76,407.36 C539.59,405.93 542.08,405.06 544.20,404.71 C541.36,405.60 540.32,407.48 541.80,409.26 C543.27,411.03 549.20,410.63 550.43,408.67 C551.42,407.12 550.73,405.64 549.20,404.87 C550.69,405.19 552.39,405.74 554.60,406.50 C558.71,407.92 562.50,408.81 563.03,408.48 C563.60,408.13 564.00,409.76 564.00,412.44 C564.00,414.95 563.89,416.94 563.75,416.87 C563.61,416.80 561.70,416.23 559.50,415.60 ZM 487.27 556.60 C485.95,557.59 481.08,557.94 468.25,557.97 C451.66,558.00 451.00,557.92 451.00,556.00 C451.00,554.08 451.67,554.00 466.88,554.00 C475.61,554.00 484.16,554.28 485.89,554.63 C488.76,555.20 488.88,555.37 487.27,556.60 ZM 544.41 354.85 C545.25,356.22 550.64,356.40 551.45,355.08 C552.03,354.14 549.46,351.00 548.12,351.00 C546.43,351.00 543.75,353.78 544.41,354.85 ZM 546.25 518.28 C548.02,518.92 551.00,517.19 551.00,515.53 C551.00,513.95 547.55,512.54 546.01,513.49 C544.58,514.38 544.75,517.74 546.25,518.28 ZM 544.67 490.33 C545.71,491.38 546.73,491.13 548.44,489.42 C550.43,487.43 549.60,486.00 546.44,486.00 C544.74,486.00 544.00,486.56 544.00,487.83 C544.00,488.84 544.30,489.97 544.67,490.33 ZM 589.08 681.19 C583.15,681.39 581.64,681.77 581.36,682.50 C580.94,683.60 577.38,683.91 558.03,683.98 C570.48,683.91 573.29,683.57 574.42,682.44 C575.28,681.57 577.23,680.97 578.74,681.09 C579.48,681.14 583.36,681.18 589.08,681.19 ZM 547.45 435.64 C549.47,436.82 552.00,436.43 552.00,434.93 C552.00,433.83 548.60,432.00 546.57,432.00 C544.48,432.00 545.01,434.22 547.45,435.64 ZM 613.76 534.00 L 643.15 534.00 L 651.82 542.25 C655.48,545.72 658.95,549.11 660.67,550.88 L 653.93 544.32 C648.94,539.47 644.28,535.18 643.58,534.79 C643.01,534.47 630.44,534.15 613.76,534.00 Z" fill="rgba(117,120,120,1)"/>
<path d="M 529.21 682.25 C529.42,680.96 528.72,680.42 526.50,680.20 C517.02,679.26 510.52,675.69 507.59,669.81 C506.97,668.56 505.42,667.02 504.14,666.38 C502.53,665.58 502.23,665.06 503.16,664.69 C503.90,664.40 492.26,664.12 477.31,664.08 L 450.43 664.00 L 450.50 663.50 L 498.00 663.00 C524.85,662.72 543.98,662.16 542.00,661.71 C540.08,661.27 519.79,661.23 496.92,661.61 C474.06,661.99 454.14,662.00 452.67,661.63 L 452.48 661.58 C461.59,662.30 516.02,661.38 517.03,660.37 C517.59,659.81 518.24,658.34 518.48,657.10 C518.72,655.86 519.19,653.99 519.52,652.94 C519.95,651.58 518.99,649.93 516.14,647.14 C512.24,643.32 508.00,635.69 508.00,632.51 C508.00,631.63 506.77,629.69 505.27,628.20 C503.76,626.72 502.49,625.28 502.43,625.00 C502.01,622.86 499.87,619.18 498.16,617.63 C496.21,615.88 494.88,612.51 492.06,602.19 C491.42,599.83 489.74,596.90 488.34,595.69 C486.94,594.49 484.89,591.58 483.78,589.24 C482.68,586.89 480.57,584.27 479.10,583.40 C476.46,581.84 473.81,578.18 471.28,572.60 C470.16,570.11 470.19,569.44 471.55,567.95 C472.61,566.77 472.78,565.98 472.05,565.53 C471.45,565.16 471.23,564.44 471.54,563.93 C471.86,563.42 471.08,563.00 469.81,562.99 C468.54,562.99 466.21,562.32 464.64,561.49 C463.42,560.86 461.72,560.43 459.90,560.19 C464.47,560.08 471.25,560.04 481.29,560.03 C500.01,560.01 511.78,559.62 512.40,559.00 C513.07,558.33 503.02,558.00 482.20,558.00 C475.31,558.00 469.93,558.00 465.75,557.97 C466.54,557.97 467.37,557.97 468.25,557.97 C481.08,557.94 485.95,557.59 487.27,556.60 C488.88,555.37 488.76,555.20 485.89,554.63 C484.16,554.28 475.61,554.00 466.88,554.00 C452.90,554.00 451.20,554.07 451.02,555.57 C451.15,554.30 451.99,553.97 454.75,553.89 L 458.50 553.77 L 454.97 553.08 C453.73,552.84 452.42,552.48 451.45,552.15 C455.59,553.13 482.54,553.30 494.57,552.36 C499.01,552.01 503.41,551.18 504.33,550.50 C505.29,549.80 506.19,547.47 506.42,545.10 C506.64,542.80 507.40,540.22 508.11,539.36 C509.84,537.29 510.10,535.05 508.66,534.81 C508.02,534.70 511.77,534.37 517.00,534.06 C522.22,533.75 527.04,533.73 527.70,534.01 C528.36,534.29 530.95,534.36 533.45,534.16 L 538.00 533.80 L 538.00 529.87 C538.00,526.52 538.40,525.80 540.75,524.89 C542.52,524.20 545.63,524.12 549.50,524.66 C555.19,525.46 555.56,525.68 556.61,528.94 C557.22,530.83 558.57,532.69 559.61,533.07 C560.65,533.46 579.68,533.84 601.91,533.92 C624.13,534.01 642.89,534.40 643.58,534.79 C644.28,535.18 648.94,539.47 653.93,544.32 L 663.00 553.14 L 663.00 660.76 L 652.78 670.88 L 642.55 681.00 L 612.03 681.15 C595.24,681.23 580.26,681.20 578.74,681.09 C577.23,680.97 575.28,681.57 574.42,682.44 C573.10,683.76 569.49,684.00 550.88,684.00 C530.51,684.00 528.93,683.87 529.21,682.25 ZM 445.93 662.80 C444.71,662.39 443.04,662.07 440.75,661.71 C436.81,661.10 436.62,661.31 436.96,666.00 C437.14,668.44 437.06,668.41 433.52,664.93 L 429.89 661.35 L 429.86 607.03 L 429.82 552.70 L 434.91 547.61 L 440.00 542.53 L 439.02 545.95 C438.48,547.83 437.61,549.79 437.10,550.30 C435.55,551.85 437.04,554.00 439.64,554.00 C440.97,554.00 443.67,553.33 445.62,552.51 C446.79,552.02 447.77,551.73 448.60,551.63 C448.21,551.78 447.83,552.03 447.50,552.36 C446.69,553.17 446.46,553.99 447.01,554.17 C447.07,554.19 447.13,554.48 447.20,555.00 L 443.62 555.00 C441.04,555.00 438.76,555.59 438.06,556.43 C436.70,558.07 435.44,655.64 436.75,657.66 C437.49,658.79 442.72,660.62 445.87,660.89 C445.10,660.93 444.11,660.87 442.85,660.70 L 438.50 660.10 L 443.50 661.88 C444.49,662.23 445.28,662.53 445.93,662.80 ZM 541.01 640.39 C543.21,642.38 545.46,644.00 546.03,644.00 C546.59,644.00 549.00,642.19 551.40,639.98 C554.69,636.95 556.92,633.35 560.53,625.23 C563.31,619.00 566.98,612.62 569.30,610.00 C574.29,604.35 578.06,596.35 578.31,590.83 C578.48,587.02 578.19,586.43 575.50,585.10 C568.87,581.84 555.51,582.13 550.12,585.66 C546.17,588.24 549.48,588.86 555.79,586.73 C560.02,585.30 562.89,584.96 566.86,585.42 C573.96,586.25 576.00,587.45 575.99,590.79 C575.97,597.53 565.66,612.00 560.88,612.00 C559.85,612.00 558.14,612.86 557.08,613.92 C554.52,616.48 545.39,617.59 539.37,616.07 C534.45,614.83 532.86,615.26 534.87,617.27 C535.66,618.06 539.76,618.56 546.30,618.67 C551.91,618.76 557.11,618.88 557.86,618.92 C561.16,619.11 556.12,631.76 550.75,636.78 C546.68,640.58 544.57,640.34 540.20,635.60 C530.80,625.40 530.80,608.63 540.20,596.75 C544.29,591.58 547.46,591.68 552.03,597.12 C556.02,601.86 557.89,605.54 557.95,608.75 C558.01,611.58 561.00,611.80 561.00,608.98 C561.00,605.62 554.33,593.46 550.91,590.58 C549.15,589.10 545.42,586.68 542.61,585.21 C535.67,581.56 523.79,581.41 517.13,584.88 C512.82,587.13 512.78,587.21 513.43,591.29 C513.79,593.56 514.93,597.31 515.96,599.63 C518.08,604.43 525.56,613.00 527.63,613.00 C529.70,613.00 529.38,612.43 524.63,607.68 C520.42,603.48 516.00,594.43 516.00,590.04 C516.00,585.63 531.97,584.12 540.19,587.76 C542.69,588.87 545.08,590.32 545.49,590.99 C546.06,591.91 545.76,591.94 544.23,591.12 C541.45,589.64 537.64,593.54 533.60,602.00 C530.98,607.49 530.50,609.67 530.50,616.02 C530.50,622.49 530.96,624.47 533.76,630.16 C535.55,633.81 538.82,638.41 541.01,640.39 ZM 642.02 600.75 C642.03,627.43 642.37,640.98 643.00,640.00 C643.59,639.09 643.98,621.98 643.98,596.75 L 644.00 555.00 L 647.06 555.00 C648.74,555.00 649.88,554.61 649.58,554.13 C648.98,553.15 643.04,551.59 641.50,552.00 C640.95,552.14 639.15,552.61 637.50,553.03 L 634.50 553.80 L 637.58 553.90 C641.18,554.02 642.07,554.66 641.32,556.60 C640.88,557.76 635.68,558.00 611.33,558.00 C591.95,558.00 582.09,558.34 582.50,559.00 C582.89,559.63 594.01,560.00 612.56,560.00 L 642.00 560.00 ZM 641.82 665.75 C642.25,668.81 644.00,668.61 644.00,665.50 C644.00,664.12 644.48,663.00 645.06,663.00 C645.67,663.00 645.78,662.47 645.31,661.75 C644.86,661.06 643.99,657.80 643.37,654.50 L 642.24 648.50 L 642.00 661.00 L 604.25 661.01 C583.49,661.02 565.38,661.36 564.00,661.76 C562.62,662.17 579.50,662.72 601.50,663.00 L 641.50 663.50 ZM 540.50 554.13 C542.70,554.51 546.75,554.64 549.50,554.42 C552.25,554.20 569.80,553.93 588.50,553.83 L 622.50 553.64 L 584.00 552.91 C562.83,552.51 543.47,552.47 541.00,552.81 L 536.50 553.44 ZM 522.28 564.75 C522.99,565.67 528.34,566.00 542.79,566.00 C553.54,566.00 562.15,565.81 561.92,565.59 C561.69,565.36 553.25,564.94 543.17,564.65 C528.39,564.22 524.34,563.80 522.29,562.46 C519.80,560.83 519.80,561.55 522.28,564.75 ZM 541.80 409.26 C540.18,407.31 541.58,405.25 545.04,404.49 C548.99,403.62 552.10,406.04 550.43,408.67 C549.20,410.63 543.27,411.03 541.80,409.26 ZM 544.41 354.85 C543.75,353.78 546.43,351.00 548.12,351.00 C549.46,351.00 552.03,354.14 551.45,355.08 C550.64,356.40 545.25,356.22 544.41,354.85 ZM 546.25 518.28 C544.75,517.74 544.58,514.38 546.01,513.49 C547.55,512.54 551.00,513.95 551.00,515.53 C551.00,517.19 548.02,518.92 546.25,518.28 ZM 544.67 490.33 C544.30,489.97 544.00,488.84 544.00,487.83 C544.00,486.56 544.74,486.00 546.44,486.00 C549.60,486.00 550.43,487.43 548.44,489.42 C546.73,491.13 545.71,491.38 544.67,490.33 ZM 547.45 435.64 C545.01,434.22 544.48,432.00 546.57,432.00 C548.60,432.00 552.00,433.83 552.00,434.93 C552.00,436.43 549.47,436.82 547.45,435.64 ZM 451.10 661.24 L 450.00 660.96 L 450.00 612.06 C450.00,648.06 450.25,659.71 451.10,661.24 ZM 448.37 596.35 C448.48,604.03 448.55,612.03 448.60,619.66 C448.58,617.15 448.56,614.58 448.53,611.97 C448.48,606.62 448.42,601.35 448.37,596.35 ZM 450.03 595.99 C450.11,576.67 450.34,562.29 450.60,561.61 C450.60,561.60 450.60,561.60 450.60,561.59 C450.34,562.39 450.12,576.75 450.03,595.99 ZM 448.11 659.87 C448.10,659.88 448.10,659.89 448.09,659.89 C447.95,660.11 447.78,660.29 447.56,660.44 C447.76,660.28 447.95,660.08 448.11,659.87 ZM 450.52 551.79 C450.66,551.84 450.80,551.90 450.93,551.97 C450.78,551.90 450.64,551.85 450.52,551.79 ZM 449.35 671.39 L 449.34 671.50 L 449.32 671.14 L 449.35 671.39 Z" fill="rgba(140,143,142,1)"/>
<path d="M 448.93 667.58 C448.53,663.90 448.20,663.55 443.50,661.88 L 438.50 660.10 L 442.85 660.70 C446.00,661.12 447.45,660.90 448.09,659.89 C449.34,657.94 448.28,554.59 447.01,554.17 C446.46,553.99 446.69,553.17 447.50,552.36 C448.32,551.53 449.53,551.21 450.21,551.63 C450.88,552.04 453.02,552.70 454.97,553.08 L 458.50 553.77 L 454.75 553.89 C451.70,553.98 451.00,554.38 451.00,556.00 C451.00,557.96 451.67,558.00 482.20,558.00 C503.02,558.00 513.07,558.33 512.40,559.00 C511.78,559.62 500.01,560.01 481.29,560.03 C455.03,560.06 451.11,560.26 450.60,561.61 C450.27,562.47 450.00,585.17 450.00,612.06 L 450.00 660.96 L 452.67 661.63 C454.14,662.00 474.06,661.99 496.92,661.61 C519.79,661.23 540.08,661.27 542.00,661.71 C543.98,662.16 524.85,662.72 498.00,663.00 L 450.50 663.50 L 449.93 667.50 L 449.36 671.50 L 448.93 667.58 ZM 641.82 665.75 L 641.50 663.50 L 601.50 663.00 C579.50,662.72 562.62,662.17 564.00,661.76 C565.38,661.36 583.49,661.02 604.25,661.01 L 642.00 661.00 L 642.12 654.75 L 642.24 648.50 L 643.37 654.50 C643.99,657.80 644.86,661.06 645.31,661.75 C645.78,662.47 645.67,663.00 645.06,663.00 C644.48,663.00 644.00,664.12 644.00,665.50 C644.00,668.61 642.25,668.81 641.82,665.75 ZM 541.01 640.39 C538.82,638.41 535.55,633.81 533.76,630.16 C530.96,624.47 530.50,622.49 530.50,616.02 C530.50,609.67 530.98,607.49 533.60,602.00 C537.64,593.54 541.45,589.64 544.23,591.12 C545.76,591.94 546.06,591.91 545.49,590.99 C545.08,590.32 542.69,588.87 540.19,587.76 C531.97,584.12 516.00,585.63 516.00,590.04 C516.00,594.43 520.42,603.48 524.63,607.68 C529.38,612.43 529.70,613.00 527.63,613.00 C525.56,613.00 518.08,604.43 515.96,599.63 C514.93,597.31 513.79,593.56 513.43,591.29 C512.78,587.21 512.82,587.13 517.13,584.88 C523.79,581.41 535.67,581.56 542.61,585.21 C545.42,586.68 549.15,589.10 550.91,590.58 C554.33,593.46 561.00,605.62 561.00,608.98 C561.00,611.80 558.01,611.58 557.95,608.75 C557.89,605.54 556.02,601.86 552.03,597.12 C547.46,591.68 544.29,591.58 540.20,596.75 C530.80,608.63 530.80,625.40 540.20,635.60 C544.57,640.34 546.68,640.58 550.75,636.78 C556.12,631.76 561.16,619.11 557.86,618.92 C557.11,618.88 551.91,618.76 546.30,618.67 C539.76,618.56 535.66,618.06 534.87,617.27 C532.86,615.26 534.45,614.83 539.37,616.07 C545.39,617.59 554.52,616.48 557.08,613.92 C558.14,612.86 559.85,612.00 560.88,612.00 C565.66,612.00 575.97,597.53 575.99,590.79 C576.00,587.45 573.96,586.25 566.86,585.42 C562.89,584.96 560.02,585.30 555.79,586.73 C549.48,588.86 546.17,588.24 550.12,585.66 C555.51,582.13 568.87,581.84 575.50,585.10 C578.19,586.43 578.48,587.02 578.31,590.83 C578.06,596.35 574.29,604.35 569.30,610.00 C566.98,612.62 563.31,619.00 560.53,625.23 C556.92,633.35 554.69,636.95 551.40,639.98 C549.00,642.19 546.59,644.00 546.03,644.00 C545.46,644.00 543.21,642.38 541.01,640.39 ZM 642.02 600.75 L 642.00 560.00 L 612.56 560.00 C594.01,560.00 582.89,559.63 582.50,559.00 C582.09,558.34 591.95,558.00 611.33,558.00 C635.68,558.00 640.88,557.76 641.32,556.60 C642.07,554.66 641.18,554.02 637.58,553.90 L 634.50 553.80 L 637.50 553.03 C639.15,552.61 640.95,552.14 641.50,552.00 C643.04,551.59 648.98,553.15 649.58,554.13 C649.88,554.61 648.74,555.00 647.06,555.00 L 644.00 555.00 L 643.98 596.75 C643.98,621.98 643.59,639.09 643.00,640.00 C642.37,640.98 642.03,627.43 642.02,600.75 ZM 522.28 564.75 C519.80,561.55 519.80,560.83 522.29,562.46 C524.34,563.80 528.39,564.22 543.17,564.65 C553.25,564.94 561.69,565.36 561.92,565.59 C562.15,565.81 553.54,566.00 542.79,566.00 C528.34,566.00 522.99,565.67 522.28,564.75 ZM 540.50 554.13 L 536.50 553.44 L 541.00 552.81 C543.47,552.47 562.83,552.51 584.00,552.91 L 622.50 553.64 L 588.50 553.83 C569.80,553.93 552.25,554.20 549.50,554.42 C546.75,554.64 542.70,554.51 540.50,554.13 Z" fill="rgba(159,179,177,1)"/>
</g>
</svg>
